<svg width="246.4" height="85.3" viewBox="0 0 246.4 85.3" xmlns="http://www.w3.org/2000/svg"><g id="svgGroup" stroke-linecap="round" fill-rule="evenodd" font-size="9pt" stroke="#000" stroke-width="0.25mm" fill="#000" style="stroke:#000;stroke-width:0.25mm;fill:#000"><path d="M 86 49.2 L 83.5 44.8 A 112.909 112.909 0 0 0 88.913 41.553 Q 91.55 39.862 93.704 38.231 A 49.263 49.263 0 0 0 96.85 35.65 A 37.011 37.011 0 0 0 100.212 32.244 Q 101.822 30.372 102.917 28.49 A 19.682 19.682 0 0 0 103.75 26.9 Q 105.8 22.5 105.8 17.5 L 105.8 8.6 L 111.2 8.6 L 111.2 17.5 A 20.763 20.763 0 0 0 112.382 24.55 A 19.494 19.494 0 0 0 113.3 26.7 A 19.807 19.807 0 0 0 115.884 30.572 Q 117.697 32.728 120.3 34.8 Q 123.956 37.71 129.449 40.675 A 107.935 107.935 0 0 0 133.4 42.7 L 130.9 47.2 A 101.679 101.679 0 0 1 125.343 44.128 Q 122.645 42.518 120.375 40.898 A 57.928 57.928 0 0 1 119.35 40.15 A 42.101 42.101 0 0 1 114.931 36.369 A 32.22 32.22 0 0 1 111.65 32.6 Q 108.7 28.6 107.1 23.7 L 109.8 23.7 A 34.183 34.183 0 0 1 107.776 29.09 A 29.482 29.482 0 0 1 106.6 31.3 Q 104.6 34.7 101.7 37.65 Q 98.8 40.6 94.9 43.4 Q 91 46.2 86 49.2 Z M 17.3 56.6 L 17.3 78.8 L 68.4 78.8 L 68.4 83.3 L 12.1 83.3 L 12.1 56.6 L 17.3 56.6 Z M 184.9 58.6 L 184.9 78.7 L 237.5 78.7 L 237.5 83.2 L 179.7 83.2 L 179.7 58.6 L 184.9 58.6 Z M 246.4 50.2 L 169.8 50.2 L 169.8 45.6 L 246.4 45.6 L 246.4 50.2 Z M 201.756 36.154 A 77.688 77.688 0 0 0 208.1 36.4 A 90.593 90.593 0 0 0 208.208 36.4 Q 215.043 36.392 220.5 35.35 Q 226 34.3 229.85 32.2 A 19.118 19.118 0 0 0 232.285 30.632 A 14.725 14.725 0 0 0 235.75 26.95 A 12.239 12.239 0 0 0 237.255 23.652 A 14.539 14.539 0 0 0 237.8 19.6 A 16.002 16.002 0 0 0 237.716 17.937 A 12.678 12.678 0 0 0 235.75 12.25 A 14.345 14.345 0 0 0 233.158 9.281 A 18.279 18.279 0 0 0 229.85 7 Q 226 4.9 220.5 3.85 A 56.915 56.915 0 0 0 214.553 3.054 A 77.933 77.933 0 0 0 208.1 2.8 A 90.222 90.222 0 0 0 207.885 2.8 Q 201.115 2.816 195.75 3.85 Q 190.3 4.9 186.45 7 A 19.118 19.118 0 0 0 184.016 8.568 A 14.725 14.725 0 0 0 180.55 12.25 A 12.239 12.239 0 0 0 179.045 15.548 A 14.539 14.539 0 0 0 178.5 19.6 A 16.002 16.002 0 0 0 178.585 21.263 A 12.678 12.678 0 0 0 180.55 26.95 A 14.345 14.345 0 0 0 183.143 29.919 A 18.279 18.279 0 0 0 186.45 32.2 Q 188.616 33.381 191.288 34.23 A 39.282 39.282 0 0 0 195.75 35.35 A 47.428 47.428 0 0 0 195.926 35.384 Q 198.66 35.9 201.756 36.154 Z M 111.1 83.55 A 40.389 40.389 0 0 0 113.308 84.086 Q 118.987 85.3 126.4 85.3 A 84.516 84.516 0 0 0 129.162 85.256 Q 136.308 85.022 141.65 83.55 Q 145.024 82.62 147.551 81.197 A 16.255 16.255 0 0 0 151.35 78.3 A 11.62 11.62 0 0 0 154.082 73.69 A 14.253 14.253 0 0 0 154.7 69.4 A 16.308 16.308 0 0 0 154.573 67.328 A 11.926 11.926 0 0 0 151.35 60.4 A 14.643 14.643 0 0 0 149.729 58.946 Q 148.043 57.641 145.827 56.654 A 28.2 28.2 0 0 0 141.65 55.2 Q 135.3 53.5 126.4 53.5 Q 117.5 53.5 111.1 55.2 A 31.667 31.667 0 0 0 109.059 55.814 Q 104.144 57.481 101.35 60.4 A 11.602 11.602 0 0 0 98.575 65.188 A 14.744 14.744 0 0 0 98 69.4 A 16.08 16.08 0 0 0 98.082 71.041 A 11.945 11.945 0 0 0 101.35 78.3 Q 103.496 80.542 106.894 82.066 A 28.91 28.91 0 0 0 111.1 83.55 Z M 63.2 0 L 63.2 62.6 L 57.9 62.6 L 57.9 0 L 63.2 0 Z M 41.907 31.988 A 29.887 29.887 0 0 0 42.3 27 A 34.985 34.985 0 0 0 42.267 25.455 Q 41.994 19.286 39.5 15.1 Q 36.7 10.4 31.95 8.15 Q 27.238 5.918 21.294 5.9 A 31.952 31.952 0 0 0 21.2 5.9 A 29.523 29.523 0 0 0 17.92 6.078 A 23.822 23.822 0 0 0 10.4 8.15 Q 5.6 10.4 2.8 15.1 Q 1.05 18.037 0.394 21.952 A 30.556 30.556 0 0 0 0 27 A 34.393 34.393 0 0 0 0.023 28.27 Q 0.124 30.978 0.657 33.315 A 18.834 18.834 0 0 0 2.8 38.8 Q 5.6 43.5 10.4 45.75 A 22.865 22.865 0 0 0 14.851 47.293 A 27.495 27.495 0 0 0 21.2 48 Q 27.154 48 31.876 45.785 A 21.528 21.528 0 0 0 31.95 45.75 Q 36.7 43.5 39.5 38.8 A 16.998 16.998 0 0 0 40.307 37.273 Q 41.414 34.894 41.907 31.987 Z M 208.1 7.3 A 71.204 71.204 0 0 0 202.092 7.54 Q 199.158 7.789 196.602 8.296 A 39.507 39.507 0 0 0 195.2 8.6 A 27.182 27.182 0 0 0 191.715 9.659 Q 189.906 10.353 188.478 11.26 A 13.307 13.307 0 0 0 186.7 12.6 A 8.881 8.881 0 0 0 183.712 19.069 A 11.911 11.911 0 0 0 183.7 19.6 A 10.022 10.022 0 0 0 184.275 23.056 A 8.756 8.756 0 0 0 186.7 26.6 A 14.357 14.357 0 0 0 189.804 28.695 Q 192.107 29.869 195.2 30.6 A 44.953 44.953 0 0 0 200.377 31.489 Q 203.938 31.9 208.1 31.9 A 72.874 72.874 0 0 0 214.073 31.669 Q 217.921 31.352 221.1 30.6 A 27.182 27.182 0 0 0 224.586 29.541 Q 226.394 28.847 227.823 27.94 A 13.307 13.307 0 0 0 229.6 26.6 A 8.881 8.881 0 0 0 232.589 20.131 A 11.911 11.911 0 0 0 232.6 19.6 A 10.022 10.022 0 0 0 232.026 16.144 A 8.756 8.756 0 0 0 229.6 12.6 A 14.357 14.357 0 0 0 226.497 10.505 Q 224.194 9.331 221.1 8.6 A 44.829 44.829 0 0 0 215.905 7.711 Q 212.319 7.3 208.1 7.3 Z M 126.4 58.1 A 78.268 78.268 0 0 0 120.259 58.325 Q 113.519 58.857 109.3 60.65 A 11.432 11.432 0 0 0 106.201 62.543 Q 103.572 64.85 103.326 68.607 A 12.111 12.111 0 0 0 103.3 69.4 A 9.538 9.538 0 0 0 104.101 73.389 Q 105.492 76.45 109.3 78.1 Q 115.3 80.7 126.4 80.7 Q 136.822 80.7 142.748 78.408 A 20.398 20.398 0 0 0 143.5 78.1 A 11.717 11.717 0 0 0 146.583 76.205 Q 149.341 73.793 149.492 69.86 A 12.008 12.008 0 0 0 149.5 69.4 A 9.846 9.846 0 0 0 148.775 65.53 Q 147.755 63.118 145.298 61.579 A 12.845 12.845 0 0 0 143.5 60.65 A 25.947 25.947 0 0 0 139.014 59.251 Q 134.286 58.196 127.623 58.108 A 92.97 92.97 0 0 0 126.4 58.1 Z M 153.2 0 L 153.2 52 L 147.9 52 L 147.9 0 L 153.2 0 Z M 5.1 27 A 25.674 25.674 0 0 0 5.481 31.579 Q 5.933 34.073 6.926 36.009 A 11.369 11.369 0 0 0 9.65 39.5 A 15.975 15.975 0 0 0 17.605 43.117 A 21.967 21.967 0 0 0 21.2 43.4 A 20.54 20.54 0 0 0 26.374 42.781 A 15.152 15.152 0 0 0 32.65 39.5 A 11.879 11.879 0 0 0 35.97 34.474 Q 36.677 32.511 36.942 30.082 A 28.468 28.468 0 0 0 37.1 27 A 26.237 26.237 0 0 0 36.729 22.421 Q 36.293 19.967 35.346 18.053 A 11.356 11.356 0 0 0 32.65 14.5 Q 28.2 10.6 21.2 10.6 A 20.658 20.658 0 0 0 15.917 11.244 A 15.612 15.612 0 0 0 9.65 14.5 Q 5.1 18.4 5.1 27 Z M 131.2 10.9 L 85.8 10.9 L 85.8 6.4 L 131.2 6.4 L 131.2 10.9 Z M 128.3 27.3 L 128.3 22.7 L 150.5 22.7 L 150.5 27.3 L 128.3 27.3 Z M 60.3 31 L 60.3 26.4 L 77.8 26.4 L 77.8 31 L 60.3 31 Z" vector-effect="non-scaling-stroke"/></g></svg>